<svg width="532" height="252" viewBox="0 0 532 252" fill="none" xmlns="http://www.w3.org/2000/svg">
<rect x="1" y="61" width="22" height="2" fill="#1DB3FC"/>
<rect x="59" y="174" width="22" height="2" fill="#1DB3FC"/>
<rect x="84" y="86" width="22" height="3" fill="#1DB3FC"/>
<rect x="66" y="153" width="22" height="3" fill="#1DB3FC"/>
<rect x="106" y="39" width="22" height="3" fill="#1DB3FC"/>
<rect x="159" y="37" width="22" height="3" fill="#1DB3FC"/>
<rect x="122" y="72" width="22" height="3" fill="#1DB3FC"/>
<rect x="237" y="36" width="22" height="3" fill="#1DB3FC"/>
<rect x="248" y="69" width="22" height="3" fill="#1DB3FC"/>
<rect x="133" y="213" width="22" height="3" fill="#1DB3FC"/>
<rect x="262" y="173" width="22" height="3" fill="#1DB3FC"/>
<rect x="219" y="147" width="22" height="2" fill="#1DB3FC"/>
<rect x="253" y="195" width="22" height="2" fill="#1DB3FC"/>
<rect x="296" y="62" width="22" height="3" fill="#1DB3FC"/>
<rect x="307" y="95" width="22" height="3" fill="#1DB3FC"/>
<rect x="95" y="69" width="22" height="3" fill="#1DB3FC"/>
<rect x="193" y="62" width="22" height="1" fill="#1DB3FC"/>
<rect x="157" y="162" width="22" height="1" fill="#1DB3FC"/>
<rect x="191" y="199" width="22" height="1" fill="#1DB3FC"/>
<rect x="262" y="148" width="22" height="1" fill="#1DB3FC"/>
<rect x="119" y="192" width="22" height="1" fill="#1DB3FC"/>
<rect x="486" y="78" width="22" height="1" fill="#1DB3FC"/>
<rect x="235" y="95" width="22" height="1" fill="#1DB3FC"/>
<rect x="27" y="42" width="22" height="3" fill="#1DB3FC"/>
<rect x="312" y="74" width="22" height="3" fill="#1DB3FC"/>
<rect x="448" y="151" width="22" height="1" fill="#1DB3FC"/>
<rect x="454" y="190" width="22" height="3" fill="#1DB3FC"/>
<rect x="459" y="169" width="22" height="3" fill="#1DB3FC"/>
<rect x="497" y="23" width="22" height="3" fill="#1DB3FC"/>
<rect x="470" y="92" width="22" height="3" fill="#1DB3FC"/>
<rect x="15" y="75" width="22" height="3" fill="#1DB3FC"/>
<rect x="5" y="26" width="22" height="4" fill="#1DB3FC"/>
<rect x="93" y="209" width="22" height="4" fill="#1DB3FC"/>
<rect x="204" y="180" width="22" height="4" fill="#1DB3FC"/>
<rect x="491" y="45" width="22" height="4" fill="#1DB3FC"/>
<g filter="url(#filter0_f)">
<path d="M37.0985 34.944V64.83C37.0985 66.2534 37.8111 66.9651 39.2363 66.9651H71.297L67.0222 79.7737H28.5496C22.8496 79.7737 20 76.9275 20 71.2346V28.54C20 22.8471 22.8496 20.0009 28.5496 20.0009H71.297L67.0222 32.8095H39.2363C37.8111 32.8095 37.0985 33.5212 37.0985 34.9446V34.944Z" fill="#1DB3FC"/>
<path d="M92.6528 62.696H84.1039C78.4039 62.696 75.5543 59.8498 75.5543 54.1569V20.0007H92.6535V47.7529C92.6535 49.1757 93.3796 49.888 94.8339 49.888H107.615C109.04 49.888 109.753 49.1757 109.753 47.7529V20.0007H126.852V54.1569C126.852 59.8498 124.002 62.696 118.302 62.696H109.753V101.122L92.6542 109.66V62.696H92.6528Z" fill="#1DB3FC"/>
<path d="M148.205 44.5506H163.167C164.592 44.5506 165.305 43.8389 165.305 42.4162V34.9444C165.305 33.521 164.592 32.8093 163.167 32.8093H148.205V44.5506V44.5506ZM148.205 66.9655H163.167C164.592 66.9655 165.305 66.2538 165.305 64.8304V57.3592C165.305 55.9358 164.592 55.2248 163.167 55.2248H148.205V66.9662V66.9655ZM173.854 20.0007C179.554 20.0007 182.403 22.8468 182.403 28.5397V44.55C182.403 47.3968 181.335 49.175 179.198 49.8874C181.335 50.5984 182.403 52.3773 182.403 55.2241V71.2343C182.403 76.9273 179.554 79.7734 173.854 79.7734H131.106V20H173.854V20.0007Z" fill="#1DB3FC"/>
<path d="M203.76 32.8093V44.5506H231.546V55.2241H203.76V66.9655H237.958L233.683 79.7741H186.661V20.0007H237.958L233.683 32.8093H203.76Z" fill="#1DB3FC"/>
<path d="M284.961 20.0007C290.661 20.0007 293.511 22.8468 293.511 28.5397V46.6851C293.511 52.378 290.661 55.2241 284.961 55.2241H282.653L294.58 79.7741H278.549L261.451 44.5506H274.275C275.7 44.5506 276.412 43.8389 276.412 42.4162V34.9444C276.412 33.521 275.7 32.8093 274.275 32.8093H259.313V101.122L242.214 109.66V20.0007H284.961V20.0007Z" fill="#1DB3FC"/>
<path d="M349.064 20.0007L344.79 32.8093H314.866V44.5506H342.653V55.2241H314.866V101.122L297.767 109.66V20.0007H349.064Z" fill="#1DB3FC"/>
<path d="M370.419 32.8093V44.5506H398.206V55.2241H370.419V66.9655H404.618L400.343 79.7741H353.321V20.0007H404.618L400.343 32.8093H370.419Z" fill="#1DB3FC"/>
<path d="M428.11 44.5506H451.622C457.322 44.5506 460.171 47.3968 460.171 53.0897V71.1924C460.171 76.913 457.322 79.7741 451.622 79.7741H408.874L413.149 66.9655H440.935C442.36 66.9655 443.073 66.2538 443.073 64.8304V57.3166C443.073 55.9216 442.36 55.2241 440.935 55.2241H417.424C411.724 55.2241 408.874 52.378 408.874 46.6851V28.5397C408.874 22.8468 411.724 20.0007 417.424 20.0007H460.171L455.896 32.8093H428.11C426.685 32.8093 425.973 33.5067 425.973 34.9017V42.4162C425.973 43.8389 426.685 44.5506 428.11 44.5506V44.5506Z" fill="#1DB3FC"/>
<path d="M511.451 20.0007V32.8093H496.489V101.122L479.39 109.66V32.8093H464.428L464.385 20.0007H511.451Z" fill="#1DB3FC"/>
<path d="M88.3921 185.035H79.8431C74.1432 185.035 71.2935 182.189 71.2935 176.496V142.34H88.3927V170.092C88.3927 171.515 89.1189 172.227 90.5732 172.227H103.354C104.779 172.227 105.492 171.515 105.492 170.092V142.34H122.591V176.496C122.591 182.189 119.742 185.035 114.042 185.035H105.493V223.461L88.3934 232V185.035H88.3921Z" fill="#1DB3FC"/>
<path d="M143.945 168.726L159.976 142.34H179.213L161.045 172.227L179.213 202.114H159.976L143.945 175.728V223.461L126.847 232V142.34H143.945V168.726Z" fill="#1DB3FC"/>
<path d="M229.422 142.34V155.149H214.46V223.461L197.362 232V155.149H182.4L182.356 142.34H229.422Z" fill="#1DB3FC"/>
<path d="M302.065 164.756V157.241C302.065 155.846 301.353 155.149 299.927 155.149H267.867L272.142 142.34H310.614C316.314 142.34 319.164 145.186 319.164 150.879V169.024C319.164 174.717 316.314 177.564 310.614 177.564H287.103C285.678 177.564 284.965 178.261 284.965 179.656V189.305H319.164L314.889 202.114H267.866V175.429C267.866 169.736 270.716 166.89 276.416 166.89H299.927C301.352 166.89 302.065 166.178 302.065 164.756H302.065Z" fill="#1DB3FC"/>
<path d="M374.717 193.574C374.717 199.267 371.868 202.114 366.168 202.114H331.97C326.27 202.114 323.42 199.267 323.42 193.574V150.88C323.42 145.187 326.27 142.341 331.97 142.341H366.168C371.868 142.341 374.717 145.187 374.717 150.88V193.574ZM340.519 187.17C340.519 188.594 341.245 189.306 342.699 189.306H355.48C356.905 189.306 357.618 188.594 357.618 187.17V157.284C357.618 155.861 356.905 155.149 355.48 155.149H342.699C341.245 155.149 340.519 155.861 340.519 157.284V187.17Z" fill="#1DB3FC"/>
<path d="M387.523 202.114V155.149H379.016L383.248 142.34H404.622V202.114H387.523Z" fill="#1DB3FC"/>
<path d="M460.184 193.574C460.184 199.267 457.334 202.114 451.635 202.114H413.162L417.437 189.305H440.949C442.374 189.305 443.086 188.607 443.086 187.212V179.698H417.438C411.738 179.698 408.889 176.852 408.889 171.16V150.922C408.889 145.2 411.738 142.339 417.438 142.339H451.636C457.336 142.339 460.185 145.186 460.185 150.879V193.573L460.184 193.574ZM440.948 155.149H428.124C426.699 155.149 425.986 155.861 425.986 157.284V166.933C425.986 168.328 426.699 169.026 428.124 169.026H443.086V157.284C443.086 155.861 442.373 155.149 440.948 155.149V155.149Z" fill="#1DB3FC"/>
</g>
<path fill-rule="evenodd" clip-rule="evenodd" d="M173.854 20.0007C179.554 20.0007 182.403 22.8468 182.403 28.5397V44.55C182.403 47.3968 181.335 49.175 179.198 49.8874C181.335 50.5984 182.403 52.3773 182.403 55.2241V71.2343C182.403 76.9273 179.554 79.7734 173.854 79.7734H131.106V20L173.854 20.0007ZM148.205 44.5506H163.167C164.592 44.5506 165.305 43.8389 165.305 42.4162V34.9444C165.305 33.521 164.592 32.8093 163.167 32.8093H148.205V44.5506ZM148.205 66.9655H163.167C164.592 66.9655 165.305 66.2538 165.305 64.8304V57.3592C165.305 55.9358 164.592 55.2248 163.167 55.2248H148.205V66.9655Z" fill="#1DB3FC"/>
<path d="M84.1039 62.696H92.6542V109.66L109.753 101.122V62.696H118.302C124.002 62.696 126.852 59.8498 126.852 54.1569V20.0007H109.753V47.7529C109.753 49.1757 109.04 49.888 107.615 49.888H94.8339C93.3796 49.888 92.6535 49.1757 92.6535 47.7529V20.0007H75.5543V54.1569C75.5543 59.8498 78.4039 62.696 84.1039 62.696Z" fill="#1DB3FC"/>
<path d="M37.0985 64.83V34.9446C37.0985 33.5212 37.8111 32.8095 39.2363 32.8095H67.0222L71.297 20.0009H28.5496C22.8496 20.0009 20 22.8471 20 28.54V71.2346C20 76.9275 22.8496 79.7737 28.5496 79.7737H67.0222L71.297 66.9651H39.2363C37.8111 66.9651 37.0985 66.2534 37.0985 64.83Z" fill="#1DB3FC"/>
<path d="M203.76 44.5506V32.8093H233.683L237.958 20.0007H186.661V79.7741H233.683L237.958 66.9655H203.76V55.2241H231.546V44.5506H203.76Z" fill="#1DB3FC"/>
<path d="M284.961 20.0007C290.661 20.0007 293.511 22.8468 293.511 28.5397V46.6851C293.511 52.378 290.661 55.2241 284.961 55.2241H282.653L294.58 79.7741H278.549L261.451 44.5506H274.275C275.7 44.5506 276.412 43.8389 276.412 42.4162V34.9444C276.412 33.521 275.7 32.8093 274.275 32.8093H259.313V101.122L242.214 109.66V20.0007H284.961Z" fill="#1DB3FC"/>
<path d="M344.79 32.8093L349.064 20.0007H297.767V109.66L314.866 101.122V55.2241H342.653V44.5506H314.866V32.8093H344.79Z" fill="#1DB3FC"/>
<path d="M370.419 32.8093V44.5506H398.206V55.2241H370.419V66.9655H404.618L400.343 79.7741H353.321V20.0007H404.618L400.343 32.8093H370.419Z" fill="#1DB3FC"/>
<path d="M451.622 44.5506H428.111C426.685 44.5506 425.973 43.8389 425.973 42.4162V34.9017C425.973 33.5067 426.685 32.8093 428.111 32.8093H455.896L460.171 20.0007H417.424C411.724 20.0007 408.874 22.8468 408.874 28.5397V46.6851C408.874 52.378 411.724 55.2241 417.424 55.2241H440.935C442.36 55.2241 443.073 55.9216 443.073 57.3166V64.8304C443.073 66.2538 442.36 66.9655 440.935 66.9655H413.149L408.874 79.7741H451.622C457.322 79.7741 460.171 76.913 460.171 71.1924V53.0897C460.171 47.3968 457.322 44.5506 451.622 44.5506Z" fill="#1DB3FC"/>
<path d="M511.451 20.0007V32.8093H496.488V101.122L479.39 109.66V32.8093H464.428L464.385 20.0007H511.451Z" fill="#1DB3FC"/>
<path d="M79.8431 185.035H88.3934V232L105.493 223.461V185.035H114.042C119.742 185.035 122.591 182.189 122.591 176.496V142.34H105.492V170.092C105.492 171.515 104.779 172.227 103.354 172.227H90.5732C89.1189 172.227 88.3927 171.515 88.3927 170.092V142.34H71.2935V176.496C71.2935 182.189 74.1432 185.035 79.8431 185.035Z" fill="#1DB3FC"/>
<path d="M143.945 168.726L159.976 142.34H179.213L161.045 172.227L179.213 202.114H159.976L143.945 175.728V223.461L126.847 232V142.34H143.945V168.726Z" fill="#1DB3FC"/>
<path d="M229.422 155.149V142.34H182.356L182.4 155.149H197.362V232L214.46 223.461V155.149H229.422Z" fill="#1DB3FC"/>
<path d="M302.065 164.756V157.241C302.065 155.846 301.353 155.149 299.927 155.149H267.867L272.142 142.34H310.614C316.314 142.34 319.164 145.186 319.164 150.879V169.024C319.164 174.717 316.314 177.564 310.614 177.564H287.103C285.678 177.564 284.965 178.261 284.965 179.656V189.305H319.164L314.889 202.114H267.866V175.429C267.866 169.736 270.716 166.89 276.416 166.89H299.927C301.352 166.89 302.065 166.178 302.065 164.756Z" fill="#1DB3FC"/>
<path fill-rule="evenodd" clip-rule="evenodd" d="M366.168 202.114C371.868 202.114 374.717 199.267 374.717 193.574V150.88C374.717 145.187 371.868 142.341 366.168 142.341H331.97C326.27 142.341 323.42 145.187 323.42 150.88V193.574C323.42 199.267 326.27 202.114 331.97 202.114H366.168ZM342.699 189.306C341.245 189.306 340.519 188.594 340.519 187.17V157.284C340.519 155.861 341.245 155.149 342.699 155.149H355.48C356.905 155.149 357.618 155.861 357.618 157.284V187.17C357.618 188.594 356.905 189.306 355.48 189.306H342.699Z" fill="#1DB3FC"/>
<path d="M387.523 202.114V155.149H379.016L383.248 142.34H404.622V202.114H387.523Z" fill="#1DB3FC"/>
<path fill-rule="evenodd" clip-rule="evenodd" d="M451.635 202.114C457.334 202.114 460.184 199.267 460.184 193.574L460.185 193.573V150.878C460.185 145.186 457.336 142.339 451.636 142.339H417.438C411.738 142.339 408.889 145.2 408.889 150.922V171.16C408.889 176.852 411.738 179.698 417.438 179.698H443.086V187.212C443.086 188.607 442.374 189.305 440.949 189.305H417.437L413.162 202.114H451.635ZM428.124 155.149H440.948C442.373 155.149 443.086 155.861 443.086 157.284V169.026H428.124C426.699 169.026 425.986 168.328 425.986 166.933V157.284C425.986 155.861 426.699 155.149 428.124 155.149Z" fill="#1DB3FC"/>
<rect x="16" y="34" width="22" height="2" fill="#F6BB22"/>
<rect x="68" y="168" width="22" height="2" fill="#F6BB22"/>
<rect x="101" y="91" width="22" height="3" fill="#F6BB22"/>
<rect x="60" y="182" width="22" height="3" fill="#F6BB22"/>
<rect x="115" y="44" width="22" height="3" fill="#F6BB22"/>
<rect x="191" y="40" width="22" height="3" fill="#F6BB22"/>
<rect x="131" y="77" width="22" height="3" fill="#F6BB22"/>
<rect x="246" y="41" width="22" height="3" fill="#F6BB22"/>
<rect x="250" y="85" width="22" height="3" fill="#F6BB22"/>
<rect x="120" y="220" width="22" height="3" fill="#F6BB22"/>
<rect x="271" y="178" width="22" height="3" fill="#F6BB22"/>
<rect x="180" y="156" width="22" height="2" fill="#F6BB22"/>
<rect x="263" y="185" width="13" height="2" fill="#F6BB22"/>
<rect x="305" y="67" width="22" height="3" fill="#F6BB22"/>
<rect x="289" y="104" width="22" height="3" fill="#F6BB22"/>
<rect x="86" y="73" width="22" height="3" fill="#F6BB22"/>
<rect x="182" y="80" width="22" height="1" fill="#F6BB22"/>
<rect x="160" y="170" width="22" height="1" fill="#F6BB22"/>
<rect x="206" y="213" width="22" height="1" fill="#F6BB22"/>
<rect x="293" y="163" width="22" height="1" fill="#F6BB22"/>
<rect x="137" y="207" width="22" height="1" fill="#F6BB22"/>
<rect x="495" y="94" width="22" height="1" fill="#F6BB22"/>
<rect x="244" y="100" width="22" height="1" fill="#F6BB22"/>
<rect x="36" y="47" width="22" height="3" fill="#F6BB22"/>
<rect x="289" y="89" width="22" height="3" fill="#F6BB22"/>
<rect x="457" y="181" width="22" height="1" fill="#F6BB22"/>
<rect x="409" y="198" width="22" height="3" fill="#F6BB22"/>
<rect x="449" y="161" width="22" height="3" fill="#F6BB22"/>
<rect x="500" y="33" width="22" height="3" fill="#F6BB22"/>
<rect x="473" y="81" width="22" height="3" fill="#F6BB22"/>
<rect x="24" y="80" width="22" height="3" fill="#F6BB22"/>
<rect x="8" y="47" width="22" height="4" fill="#F6BB22"/>
<rect x="85" y="200" width="22" height="4" fill="#F6BB22"/>
<rect x="189" y="186" width="22" height="4" fill="#F6BB22"/>
<rect x="484" y="70" width="22" height="4" fill="#F6BB22"/>
<path fill-rule="evenodd" clip-rule="evenodd" d="M176.628 25.0007C182.328 25.0007 185.177 27.8468 185.177 33.5397V49.55C185.177 52.3968 184.109 54.175 181.972 54.8874C184.109 55.5984 185.177 57.3773 185.177 60.2241V76.2343C185.177 81.9273 182.328 84.7734 176.628 84.7734H133.88V25L176.628 25.0007ZM150.98 49.5506H165.941C167.366 49.5506 168.079 48.8389 168.079 47.4162V39.9444C168.079 38.521 167.366 37.8093 165.941 37.8093H150.98V49.5506ZM150.98 71.9655H165.941C167.366 71.9655 168.079 71.2538 168.079 69.8304V62.3592C168.079 60.9358 167.366 60.2248 165.941 60.2248H150.98V71.9655Z" fill="#F6BB22"/>
<path d="M86.8781 67.696H95.4284V114.66L112.528 106.122V67.696H121.076C126.776 67.696 129.626 64.8498 129.626 59.1569V25.0007H112.527V52.7529C112.527 54.1757 111.814 54.888 110.389 54.888H97.6081C96.1538 54.888 95.4277 54.1757 95.4277 52.7529V25.0007H78.3285V59.1569C78.3285 64.8498 81.1781 67.696 86.8781 67.696Z" fill="#F6BB22"/>
<path d="M39.8727 69.83V39.9446C39.8727 38.5212 40.5853 37.8095 42.0105 37.8095H69.7964L74.0712 25.0009H31.3238C25.6238 25.0009 22.7742 27.8471 22.7742 33.54V76.2346C22.7742 81.9275 25.6238 84.7737 31.3238 84.7737H69.7964L74.0712 71.9651H42.0105C40.5853 71.9651 39.8727 71.2534 39.8727 69.83Z" fill="#F6BB22"/>
<path d="M206.534 49.5506V37.8093H236.458L240.732 25.0007H189.435V84.7741H236.458L240.732 71.9655H206.534V60.2241H234.32V49.5506H206.534Z" fill="#F6BB22"/>
<path d="M287.735 25.0007C293.435 25.0007 296.285 27.8468 296.285 33.5397V51.6851C296.285 57.378 293.435 60.2241 287.735 60.2241H285.427L297.354 84.7741H281.324L264.225 49.5506H277.049C278.474 49.5506 279.186 48.8389 279.186 47.4162V39.9444C279.186 38.521 278.474 37.8093 277.049 37.8093H262.087V106.122L244.988 114.66V25.0007H287.735Z" fill="#F6BB22"/>
<path d="M347.564 37.8093L351.839 25.0007H300.542V114.66L317.64 106.122V60.2241H345.427V49.5506H317.64V37.8093H347.564Z" fill="#F6BB22"/>
<path d="M373.194 37.8093V49.5506H400.98V60.2241H373.194V71.9655H407.392L403.117 84.7741H356.095V25.0007H407.392L403.117 37.8093H373.194Z" fill="#F6BB22"/>
<path d="M454.396 49.5506H430.885C429.46 49.5506 428.747 48.8389 428.747 47.4162V39.9017C428.747 38.5067 429.46 37.8093 430.885 37.8093H458.671L462.945 25.0007H420.198C414.498 25.0007 411.648 27.8468 411.648 33.5397V51.6851C411.648 57.378 414.498 60.2241 420.198 60.2241H443.709C445.134 60.2241 445.847 60.9216 445.847 62.3166V69.8304C445.847 71.2538 445.134 71.9655 443.709 71.9655H415.923L411.648 84.7741H454.396C460.096 84.7741 462.945 81.913 462.945 76.1924V58.0897C462.945 52.3968 460.096 49.5506 454.396 49.5506Z" fill="#F6BB22"/>
<path d="M514.225 25.0007V37.8093H499.263V106.122L482.164 114.66V37.8093H467.202L467.159 25.0007H514.225Z" fill="#F6BB22"/>
<path d="M82.6173 190.035H91.1676V237L108.267 228.461V190.035H116.816C122.516 190.035 125.365 187.189 125.365 181.496V147.34H108.266V175.092C108.266 176.515 107.554 177.227 106.128 177.227H93.3474C91.8931 177.227 91.1669 176.515 91.1669 175.092V147.34H74.0677V181.496C74.0677 187.189 76.9174 190.035 82.6173 190.035Z" fill="#F6BB22"/>
<path d="M146.719 173.726L162.75 147.34H181.987L163.819 177.227L181.987 207.114H162.75L146.719 180.728V228.461L129.621 237V147.34H146.719V173.726Z" fill="#F6BB22"/>
<path d="M232.196 160.149V147.34H185.131L185.174 160.149H200.136V237L217.235 228.461V160.149H232.196Z" fill="#F6BB22"/>
<path d="M304.839 169.756V162.241C304.839 160.846 304.127 160.149 302.702 160.149H270.641L274.916 147.34H313.388C319.088 147.34 321.938 150.186 321.938 155.879V174.024C321.938 179.717 319.088 182.564 313.388 182.564H289.877C288.452 182.564 287.74 183.261 287.74 184.656V194.305H321.938L317.663 207.114H270.64V180.429C270.64 174.736 273.49 171.89 279.19 171.89H302.701C304.126 171.89 304.839 171.178 304.839 169.756Z" fill="#F6BB22"/>
<path fill-rule="evenodd" clip-rule="evenodd" d="M368.942 207.114C374.642 207.114 377.491 204.267 377.491 198.574V155.88C377.491 150.187 374.642 147.341 368.942 147.341H334.744C329.044 147.341 326.194 150.187 326.194 155.88V198.574C326.194 204.267 329.044 207.114 334.744 207.114H368.942ZM345.473 194.306C344.019 194.306 343.293 193.594 343.293 192.17V162.284C343.293 160.861 344.019 160.149 345.473 160.149H358.254C359.68 160.149 360.392 160.861 360.392 162.284V192.17C360.392 193.594 359.68 194.306 358.254 194.306H345.473Z" fill="#F6BB22"/>
<path d="M390.297 207.114V160.149H381.791L386.022 147.34H407.396V207.114H390.297Z" fill="#F6BB22"/>
<path fill-rule="evenodd" clip-rule="evenodd" d="M454.409 207.114C460.109 207.114 462.958 204.267 462.958 198.574L462.96 198.573V155.878C462.96 150.186 460.11 147.339 454.41 147.339H420.212C414.512 147.339 411.663 150.2 411.663 155.922V176.16C411.663 181.852 414.512 184.698 420.212 184.698H445.86V192.212C445.86 193.607 445.148 194.305 443.723 194.305H420.212L415.936 207.114H454.409ZM430.898 160.149H443.722C445.147 160.149 445.86 160.861 445.86 162.284V174.026H430.898C429.473 174.026 428.761 173.328 428.761 171.933V162.284C428.761 160.861 429.473 160.149 430.898 160.149Z" fill="#F6BB22"/>
<path fill-rule="evenodd" clip-rule="evenodd" d="M181.854 23.0007C187.014 23.0007 189.838 25.3336 190.327 30H180V33H190.403V47.55C190.403 50.3968 189.335 52.175 187.198 52.8874C189.335 53.5984 190.403 55.3773 190.403 58.2241V74.2343C190.403 74.8569 190.369 75.4455 190.301 76H173V77H190.133C189.3 80.8491 186.541 82.7734 181.854 82.7734H139.106V81H151V80H139.106V68H149V65H139.106V23L181.854 23.0007ZM156.205 47.5506H171.167C172.592 47.5506 173.305 46.8389 173.305 45.4162V37.9444C173.305 36.521 172.592 35.8093 171.167 35.8093H156.205V47.5506ZM156.205 69.9655H171.167C172.592 69.9655 173.305 69.2538 173.305 67.8304V60.3592C173.305 58.9358 172.592 58.2248 171.167 58.2248H156.205V69.9655ZM92.1039 65.696H100.654V112.66L117.753 104.122V87H111V84H117.753V65.696H126.302C132.002 65.696 134.852 62.8498 134.852 57.1569V23.0007H117.753V36H123V39H117.753V50.7529C117.753 52.1757 117.04 52.888 115.615 52.888H102.834C101.38 52.888 100.653 52.1757 100.653 50.7529V46H93V43H100.653V23.0007H83.5543V57.1569C83.5543 57.4452 83.5616 57.7263 83.5762 58H97V60H83.8414C84.6945 63.7974 87.4485 65.696 92.1039 65.696ZM45.0985 61V67.83C45.0985 69.2534 45.8111 69.9651 47.2363 69.9651H79.297L78.2841 73H73V76H77.2828L75.0222 82.7737H36.5496C30.8496 82.7737 28 79.9275 28 74.2346V69H35V67H28V43H37V42H28V31.54C28 25.8471 30.8496 23.0009 36.5496 23.0009H79.297L75.0222 35.8095H47.2363C45.8111 35.8095 45.0985 36.5212 45.0985 37.9446V58H40V61H45.0985ZM211.76 47.5506V35.8093H241.683L245.958 23.0007H194.661V48H202V51H194.661V82.7741H241.683L245.958 69.9655H211.76V68H205V65H211.76V58.2241H239.546V47.5506H211.76ZM301.287 29C300.514 25.0003 297.739 23.0007 292.961 23.0007H250.214V28H259V31H250.214V100H259V101H250.214V112.66L267.313 104.122V93H260V90H267.313V35.8093H282.275C283.7 35.8093 284.412 36.521 284.412 37.9444V45.4162C284.412 46.8389 283.7 47.5506 282.275 47.5506H269.451L286.549 82.7741H302.58L290.653 58.2241H292.961C298.555 58.2241 301.404 55.483 301.508 50H292V49H301.511V32H295V29H301.287ZM352.79 35.8093L354.061 32H345V31H354.395L357.064 23.0007H305.767V25H314V26H305.767V83H314V85H305.767V112.66L322.866 104.122V104H318V101H322.866V66H314V63H322.866V58.2241H350.653V47.5506H322.866V35.8093H352.79ZM378.419 47.5506V35.8093H408.343L411.283 27H402V26H411.617L412.618 23.0007H361.321V39H368V43H361.321V68H370V70H361.321V79H382V80H361.321V82.7741H408.343L412.618 69.9655H378.419V61H369V58H379V58.2241H406.206V47.5506H378.419ZM459.622 47.5506H436.111C434.685 47.5506 433.973 46.8389 433.973 45.4162V44H428V41H433.973V37.9017C433.973 36.5067 434.685 35.8093 436.111 35.8093H463.896L466.836 27H455V26H467.17L468.171 23.0007H425.424C420.263 23.0007 417.439 25.3336 416.951 30H422V32H416.874V49.6851C416.874 55.378 419.724 58.2241 425.424 58.2241H448.935C450.36 58.2241 451.073 58.9216 451.073 60.3166V67.8304C451.073 69.2538 450.36 69.9655 448.935 69.9655H421.149L419.803 74H428V76H419.135L416.874 82.7741H459.622C464.297 82.7741 467.055 80.8491 467.895 77H455V76H468.065C468.136 75.433 468.171 74.8305 468.171 74.1924V56.0897C468.171 55.7141 468.159 55.3508 468.134 55H457V53H467.825C466.91 49.367 464.175 47.5506 459.622 47.5506ZM519.451 35.8093V23.0007H472.385L472.402 28H479V31H472.412L472.428 35.8093H487.39V43H493V44H487.39V66H493V70H487.39V88H491V91H487.39V112.66L504.488 104.122V97H496V96H504.488V59H499V56H504.488V35.8093H519.451ZM87.8431 188.035H96.3934V221H107V223H96.3934V235L113.493 226.461V205H107V201H113.493V188.035H122.042C127.742 188.035 130.591 185.189 130.591 179.496V177H121V176H130.591V145.34H113.492V154H122V155H113.492V173.092C113.492 174.515 112.779 175.227 111.354 175.227H98.5732C97.1189 175.227 96.3927 174.515 96.3927 173.092V145.34H79.2935V161H92V163H79.2935V179.496C79.2935 179.667 79.2961 179.835 79.3012 180H86V183H79.754C80.7697 186.357 83.466 188.035 87.8431 188.035ZM167.976 145.34L151.945 171.726V145.34H134.847V158H141V161H134.847V215H144V217H134.847V235L151.945 226.461V191H146V190H151.945V178.728L158.794 190H168V191H159.401L167.976 205.114H187.213L169.045 175.227L174.046 167H165V165H175.262L187.213 145.34H167.976ZM237.422 158.149V156H228V155H237.422V145.34H190.356L190.376 151H201V153H190.382L190.4 158.149H205.362V175H211V179H205.362V218H211V220H205.362V235L222.46 226.461V201H215V200H222.46V158.149H237.422ZM310.065 160.241V162H317V163H310.065V167.756C310.065 169.178 309.352 169.89 307.927 169.89H284.416C278.716 169.89 275.866 172.736 275.866 178.429V180H282V183H275.866V201H287V202H275.866V205.114H322.889L324.262 201H319V198H325.263L327.164 192.305H292.965V182.656C292.965 181.261 293.678 180.564 295.103 180.564H318.614C323.611 180.564 326.418 178.376 327.034 174H316V173H327.134C327.154 172.685 327.164 172.36 327.164 172.024V153.879C327.164 148.186 324.314 145.34 318.614 145.34H280.142L278.92 149H289V151H278.253L275.867 158.149H307.927C309.353 158.149 310.065 158.846 310.065 160.241ZM382.652 198C382.695 197.546 382.717 197.071 382.717 196.574V184H378V181H382.717V153.88C382.717 148.187 379.868 145.341 374.168 145.341H339.97C334.27 145.341 331.42 148.187 331.42 153.88V159H342V160H331.42V196H338V199H331.623C332.365 203.076 335.147 205.114 339.97 205.114H374.168C378.991 205.114 381.773 203.076 382.515 199H372V198H382.652ZM350.699 192.306C349.245 192.306 348.519 191.594 348.519 190.17V181H339V179H348.519V160.284C348.519 158.861 349.245 158.149 350.699 158.149H363.48C364.905 158.149 365.618 158.861 365.618 160.284V162H372V165H365.618V190.17C365.618 191.594 364.905 192.306 363.48 192.306H350.699ZM395.523 202V205.114H412.622V182H402V181H412.622V145.34H391.248L389.048 152H399V153H388.717L387.016 158.149H395.523V168H402V171H395.523V200H400V202H395.523ZM459.635 205.114C465.334 205.114 468.184 202.267 468.184 196.574L468.185 196.573V182H457V181H468.185V157H461V154H468.185V153.878C468.185 148.186 465.336 145.339 459.636 145.339H425.438C419.738 145.339 416.889 148.2 416.889 153.922V156H428V157H416.889V174.16C416.889 176.106 417.222 177.719 417.888 179H439V181H419.513C420.921 182.132 422.896 182.698 425.438 182.698H451.086V190.212C451.086 191.607 450.374 192.305 448.949 192.305H425.437L422.535 201H444V202H422.201L421.162 205.114H459.635ZM436.124 158.149H448.948C450.373 158.149 451.086 158.861 451.086 160.284V172.026H436.124C435.966 172.026 435.816 172.017 435.675 172H429V169H433.986V160.284C433.986 158.861 434.699 158.149 436.124 158.149Z" fill="#EB1F4F"/>
<defs>
<filter id="filter0_f" x="0" y="0" width="531.451" height="252" filterUnits="userSpaceOnUse" color-interpolation-filters="sRGB">
<feFlood flood-opacity="0" result="BackgroundImageFix"/>
<feBlend mode="normal" in="SourceGraphic" in2="BackgroundImageFix" result="shape"/>
<feGaussianBlur stdDeviation="10" result="effect1_foregroundBlur"/>
</filter>
</defs>
</svg>
